<?xml version="1.0" standalone="no"?>
<!DOCTYPE svg PUBLIC "-//W3C//DTD SVG 1.1//EN" "http://www.w3.org/Graphics/SVG/1.1/DTD/svg11.dtd" >
<svg xmlns="http://www.w3.org/2000/svg">
<metadata></metadata>
<defs>
<font id="southlight" horiz-adv-x="0" >
<font-face units-per-em="2048" ascent="1638" descent="-410" />
<missing-glyph horiz-adv-x="500" />
<glyph unicode=" "  horiz-adv-x="500" />
<glyph unicode="&#x09;" horiz-adv-x="500" />
<glyph unicode="&#xa0;" horiz-adv-x="500" />
<glyph unicode="!" horiz-adv-x="456" d="M100 388v870l220 48v-918h-220zM100 0v220h220v-220h-220z" />
<glyph unicode="&#x22;" horiz-adv-x="744" d="M488 790h-118l124 552h220zM188 790h-118l124 552h220z" />
<glyph unicode="#" horiz-adv-x="1256" d="M926 722l-60 -246h160v-148h-196l-66 -262h-148l66 262h-242l-64 -262h-148l64 262h-192v148h228l62 246h-160v148h196l66 260h146l-64 -260h242l64 260h148l-64 -260h192v-148h-230zM538 722l-62 -246h242l62 246h-242z" />
<glyph unicode="$" horiz-adv-x="1194" d="M1054 352q0 -73 -31 -130.5t-84 -100t-124 -71t-151 -42.5v-96h-172v96q-76 3 -146.5 22.5t-125 55t-87.5 86.5t-33 116v44h214v-10q0 -29 9.5 -50t30.5 -36t55 -23.5t83 -12.5v360q-125 37 -212.5 82.5t-133.5 112.5t-46 149q0 79 30 134.5t82.5 92.5t124.5 57.5 t155 31.5v94h172v-94q136 -27 214 -74.5t108 -98.5t30 -111v-40h-212v10q0 21 -3.5 40.5t-17 36t-42 29t-77.5 18.5v-320q178 -60 253 -112.5t106 -113t31 -132.5zM492 1030q-72 -6 -109 -21.5t-53 -40t-16 -62.5q0 -42 16.5 -66.5t48.5 -42t113 -45.5v278zM840 342 q0 39 -19.5 68.5t-53 46.5t-103.5 47v-306q91 22 133.5 54.5t42.5 89.5z" />
<glyph unicode="%" horiz-adv-x="1534" d="M574 0h-146l520 1188h148zM512 864q0 112 -6.5 149t-19 52t-34 18t-52.5 3q-32 0 -54 -3t-34.5 -18t-19 -52t-6.5 -149t6.5 -148t19 -51t34.5 -18t54 -3q31 0 52.5 3t34 18t19 51t6.5 148zM632 876q0 -87 -7 -159.5t-30.5 -112t-69 -58t-123.5 -18.5q-80 0 -126.5 18.5 t-70 58t-30.5 112t-7 159.5t7 149.5t30.5 102t70 58t126.5 18.5q78 0 123.5 -18.5t69 -58t30.5 -102t7 -149.5zM1246 316q0 112 -6.5 149t-19 52t-34 18t-52.5 3q-32 0 -54 -3t-34.5 -18t-19 -52t-6.5 -149t6.5 -148t19 -51t34.5 -18t54 -3q31 0 52.5 3t34 18t19 51t6.5 148 zM1366 328q0 -87 -7 -159.5t-30.5 -112t-69 -58t-123.5 -18.5q-80 0 -126.5 18.5t-70 58t-30.5 112t-7 159.5t7 149.5t30.5 102t70 58t126.5 18.5q78 0 123.5 -18.5t69 -58t30.5 -102t7 -149.5z" />
<glyph unicode="'" horiz-adv-x="464" d="M198 788h-118l124 554h220z" />
<glyph unicode="(" horiz-adv-x="480" d="M286 -272q-98 50 -142 119t-44 163v1146q0 107 43.5 179.5t140.5 116.5l94 -142q-76 -67 -76 -158v-1128q0 -45 19.5 -83t58.5 -73z" />
<glyph unicode=")" horiz-adv-x="480" d="M380 10q0 -94 -44 -163t-142 -119l-94 140q39 35 58.5 73t19.5 83v1128q0 92 -78 158l96 142q95 -44 139.5 -116.5t44.5 -179.5v-1146v0z" />
<glyph unicode="*" horiz-adv-x="804" d="M486 1184l146 -202l-82 -60l-150 202l-146 -202l-82 60l146 200l-238 80l32 96l240 -76v252h102v-252l238 76l32 -96z" />
<glyph unicode="+" horiz-adv-x="834" d="M502 526v-234h-170v234h-232v144h232v234h170v-234h232v-144h-232z" />
<glyph unicode="," horiz-adv-x="484" d="M198 -268h-98l124 552h200z" />
<glyph unicode="-" horiz-adv-x="734" d="M100 486v186h534v-186h-534z" />
<glyph unicode="." horiz-adv-x="460" d="M100 0v220h220v-220h-220z" />
<glyph unicode="/" horiz-adv-x="938" d="M274 -138h-174l564 1580h174z" />
<glyph unicode="0" horiz-adv-x="1042" d="M730 594q0 195 -9.5 261t-26.5 97t-52.5 41.5t-120.5 10.5t-120.5 -10.5t-52.5 -41.5t-26.5 -97t-9.5 -261q0 -199 9.5 -265t26.5 -97t52.5 -41.5t120.5 -10.5t120.5 10.5t52.5 41.5t26.5 97t9.5 265zM942 610q0 -209 -16.5 -330t-75 -192t-144 -91.5t-185.5 -20.5 t-185.5 20.5t-144 91.5t-75 192t-16.5 330q0 179 16.5 299t75 189t144 89.5t185.5 20.5t185.5 -20.5t144 -89.5t75 -189t16.5 -299z" />
<glyph unicode="1" horiz-adv-x="766" d="M386 0v954l-240 -152l-86 148l354 238h190v-1188h-218z" />
<glyph unicode="2" horiz-adv-x="1028" d="M928 878q0 -122 -71.5 -207.5t-259 -187.5t-235.5 -166t-52 -133h602v-184h-812v100q0 169 57.5 269t136.5 158t205.5 131t162 124t35.5 107q0 38 -27.5 71t-72 48t-90.5 15q-68 0 -163 -28.5t-186 -78.5v208q147 63 221 77.5t117 14.5q188 0 310 -90.5t122 -247.5z" />
<glyph unicode="3" horiz-adv-x="1048" d="M958 372q0 -185 -148 -290.5t-378 -105.5q-90 0 -169 17t-163 49l80 166q28 -11 108 -31.5t148 -20.5q137 0 218.5 56t81.5 166q0 96 -69.5 151t-202.5 55h-160v144l312 276h-486l48 184h720v-188l-294 -254q106 -22 192 -75t124 -130.5t38 -168.5z" />
<glyph unicode="4" horiz-adv-x="1092" d="M868 262v-262h-214v262h-584v186l394 740h242l-400 -752h348v242h214v-242h164v-174h-164z" />
<glyph unicode="5" horiz-adv-x="960" d="M318 810l144 -8q90 -5 164 -32.5t127 -74t82 -111t29 -142.5q0 -77 -22 -136t-59.5 -104t-87.5 -78t-107 -58q-51 -23 -105.5 -40t-111 -30.5t-114 -26t-113.5 -25.5l-44 180q29 9 80 19t110 25t120 36.5t110.5 54t80.5 77t31 106.5t-25.5 99.5t-66 57.5t-92.5 26.5 t-104 6.5h-246l60 556h666v-184h-488z" />
<glyph unicode="6" horiz-adv-x="1156" d="M1046 368q0 -178 -133 -286t-333 -108q-215 0 -342.5 107t-127.5 303q0 100 37.5 197.5t158.5 262.5l296 402l232 -58l-316 -438q39 4 75 4q207 0 330 -112.5t123 -273.5zM814 372q0 98 -68 157t-172 59q-100 0 -167 -60.5t-67 -153.5q0 -103 67.5 -162.5t170.5 -59.5 q105 0 170.5 59.5t65.5 160.5z" />
<glyph unicode="7" horiz-adv-x="976" d="M916 992q-113 -110 -227.5 -246t-161.5 -258t-47 -284v-204h-230v204q0 140 44 280t158 282.5t216 237.5h-588l48 184h788v-196z" />
<glyph unicode="8" horiz-adv-x="1082" d="M992 318q0 -161 -117 -250.5t-335 -89.5q-219 0 -334.5 89.5t-115.5 250.5q0 107 62.5 187.5t177.5 156.5q-65 49 -127.5 119t-62.5 155q0 125 112.5 199.5t287.5 74.5t288.5 -74.5t113.5 -199.5q0 -85 -63 -155t-129 -119q117 -76 179.5 -156.5t62.5 -187.5zM716 918 q0 54 -49.5 82t-126.5 28t-125.5 -28t-48.5 -82q0 -36 22 -65.5t72.5 -55.5t79.5 -39q30 14 81 38.5t73 54.5t22 67zM766 332q0 68 -40.5 113.5t-91.5 70.5t-94 42q-44 -17 -95 -41t-90 -69t-39 -116q0 -82 63.5 -127t160.5 -45q99 0 162.5 45t63.5 127z" />
<glyph unicode="9" horiz-adv-x="1102" d="M994 810q0 -65 -13.5 -120.5t-38.5 -109.5t-59.5 -110.5t-76.5 -121.5l-246 -384l-244 36l276 422q-24 -1 -37 -1q-129 0 -232.5 50t-158 148t-54.5 207q0 172 121.5 284t316.5 112q207 0 326.5 -109.5t119.5 -302.5zM774 822q0 101 -63 161.5t-161 60.5t-160 -60.5 t-62 -161.5q0 -94 62 -154t164 -60q94 0 157 60.5t63 153.5z" />
<glyph unicode=":" horiz-adv-x="402" d="M100 0v220h220v-220h-220zM100 718v220h220v-220h-220z" />
<glyph unicode=";" horiz-adv-x="478" d="M198 0h-98l124 532h200zM224 968v220h220v-220h-220z" />
<glyph unicode="&#x3c;" horiz-adv-x="962" d="M314 598l548 -466h-214l-548 466l548 466h214z" />
<glyph unicode="=" horiz-adv-x="866" d="M100 698v156h666v-156h-666zM100 384v154h666v-154h-666z" />
<glyph unicode="&#x3e;" horiz-adv-x="962" d="M314 132h-214l548 466l-548 466h214l548 -466z" />
<glyph unicode="?" horiz-adv-x="896" d="M745 983q0 -78 -79 -143l-318 -260q-14 -11 -23.5 -22.5t-9.5 -24.5q0 -12 9 -33l36 -92l-178 -58l-68 158q-14 32 -14 61q0 45 44 81l300 246q44 36 57.5 56t13.5 34q0 27 -54 56t-144.5 57.5t-222.5 64.5l104 168q115 -26 254.5 -78.5t216 -124t76.5 -146.5zM158 0v220 h220v-220h-220z" />
<glyph unicode="[" horiz-adv-x="480" d="M286 -272q-98 50 -142 119t-44 163v1146q0 107 43.5 179.5t140.5 116.5l94 -142q-76 -67 -76 -158v-1128q0 -45 19.5 -83t58.5 -73z" />
<glyph unicode="\" horiz-adv-x="938" d="M838 -138h-174l-564 1580h174z" />
<glyph unicode="]" horiz-adv-x="480" d="M380 10q0 -94 -44 -163t-142 -119l-94 140q39 35 58.5 73t19.5 83v1128q0 92 -78 158l96 142q95 -44 139.5 -116.5t44.5 -179.5v-1146v0z" />
<glyph unicode="{" horiz-adv-x="604" d="M184 506h-124v190h124v460q0 107 44.5 179.5t139.5 116.5l96 -142q-78 -66 -78 -158v-1128q0 -45 19.5 -83t58.5 -73l-94 -140q-98 50 -142 119t-44 163v496z" />
<glyph unicode="|" horiz-adv-x="384" d="M100 -134v1464h184v-1464h-184z" />
<glyph unicode="}" horiz-adv-x="604" d="M420 10q0 -94 -44 -163t-142 -119l-94 140q39 35 58.5 73t19.5 83v1128q0 92 -78 158l96 142q95 -44 139.5 -116.5t44.5 -179.5v-460h124v-190h-124v-496v0z" />
<glyph unicode="&#xa6;" horiz-adv-x="576" d="M396 1352v-742h-216v742h216zM396 372v-742h-216v742h216z" />
<glyph unicode="&#xad;" horiz-adv-x="734" d="M100 486v186h534v-186h-534z" />
<glyph unicode="&#xd7;" horiz-adv-x="1160" d="M812 132l-250 250l-240 -242l-154 154l242 240l-242 242l154 154l242 -240l246 246l154 -154l-246 -246l246 -248z" />
<glyph unicode="&#x5b0;" d="M88 -266q0 -38 -23.5 -66t-64.5 -28t-65.5 28t-24.5 66q0 18 6.5 34.5t18.5 29.5t28.5 20.5t36.5 7.5q41 0 64.5 -28t23.5 -64zM88 -534q0 -38 -23.5 -65t-64.5 -27t-65.5 27t-24.5 65q0 17 6.5 34t18.5 30.5t28.5 21.5t36.5 8t36.5 -8t28 -21.5t17.5 -30.5t6 -34z" />
<glyph unicode="&#x5b1;" d="M350 -266q0 -38 -23.5 -66t-64.5 -28t-65.5 28t-24.5 66q0 18 6.5 34.5t18.5 29.5t28.5 20.5t36.5 7.5q41 0 64.5 -28t23.5 -64zM350 -534q0 -38 -23.5 -65t-64.5 -27t-65.5 27t-24.5 65q0 17 6.5 34t18.5 30.5t28.5 21.5t36.5 8t36.5 -8t28 -21.5t17.5 -30.5t6 -34z M90 -266q0 -38 -23.5 -66t-64.5 -28t-65.5 28t-24.5 66q0 18 6.5 34.5t18.5 29.5t28.5 20.5t36.5 7.5q41 0 64.5 -28t23.5 -64zM-170 -266q0 -38 -23.5 -66t-64.5 -28t-65.5 28t-24.5 66q0 18 6.5 34.5t18.5 29.5t28.5 20.5t36.5 7.5q41 0 64.5 -28t23.5 -64zM-42 -534 q0 -38 -23.5 -65t-64.5 -27t-65.5 27t-24.5 65q0 17 6.5 34t18.5 30.5t28.5 21.5t36.5 8t36.5 -8t28 -21.5t17.5 -30.5t6 -34z" />
<glyph unicode="&#x5b2;" d="M336 -266q0 -38 -23.5 -66t-64.5 -28t-65.5 28t-24.5 66q0 18 6.5 34.5t18.5 29.5t28.5 20.5t36.5 7.5q41 0 64.5 -28t23.5 -64zM336 -534q0 -38 -23.5 -65t-64.5 -27t-65.5 27t-24.5 65q0 17 6.5 34t18.5 30.5t28.5 21.5t36.5 8t36.5 -8t28 -21.5t17.5 -30.5t6 -34z M-334 -316v102h424v-102h-424z" />
<glyph unicode="&#x5b3;" d="M334 -266q0 -38 -23.5 -66t-64.5 -28t-65.5 28t-24.5 66q0 18 6.5 34.5t18.5 29.5t28.5 20.5t36.5 7.5q41 0 64.5 -28t23.5 -64zM334 -534q0 -38 -23.5 -65t-64.5 -27t-65.5 27t-24.5 65q0 17 6.5 34t18.5 30.5t28.5 21.5t36.5 8t36.5 -8t28 -21.5t17.5 -30.5t6 -34z M-170 -316h-166v102h424v-102h-166l14 -250h-120z" />
<glyph unicode="&#x5b4;" d="M88 -266q0 -38 -23.5 -66t-64.5 -28t-65.5 28t-24.5 66q0 18 6.5 34.5t18.5 29.5t28.5 20.5t36.5 7.5q41 0 64.5 -28t23.5 -64z" />
<glyph unicode="&#x5b5;" d="M-44 -266q0 -38 -23.5 -66t-64.5 -28t-65.5 28t-24.5 66q0 18 6.5 34.5t18.5 29.5t28.5 20.5t36.5 7.5q41 0 64.5 -28t23.5 -64zM224 -266q0 -38 -23.5 -66t-64.5 -28t-65.5 28t-24.5 66q0 18 6.5 34.5t18.5 29.5t28.5 20.5t36.5 7.5q41 0 64.5 -28t23.5 -64z" />
<glyph unicode="&#x5b6;" d="M-44 -266q0 -38 -23.5 -66t-64.5 -28t-65.5 28t-24.5 66q0 18 6.5 34.5t18.5 29.5t28.5 20.5t36.5 7.5q41 0 64.5 -28t23.5 -64zM224 -266q0 -38 -23.5 -66t-64.5 -28t-65.5 28t-24.5 66q0 18 6.5 34.5t18.5 29.5t28.5 20.5t36.5 7.5q41 0 64.5 -28t23.5 -64zM88 -508 q0 -38 -23.5 -66t-64.5 -28t-65.5 28t-24.5 66q0 18 6.5 34.5t18.5 29.5t28.5 20.5t36.5 7.5q41 0 64.5 -28t23.5 -64z" />
<glyph unicode="&#x5b7;" d="M-212 -276v102h424v-102h-424z" />
<glyph unicode="&#x5b8;" d="M-46 -276h-166v102h424v-102h-166l14 -250h-120z" />
<glyph unicode="&#x5b9;" d="M89 1389q0 -40 -24.5 -66.5t-64.5 -26.5t-64.5 26.5t-24.5 66.5t24.5 66.5t64.5 26.5t64.5 -26.5t24.5 -66.5z" />
<glyph unicode="&#x5bb;" d="M88 -266q0 -38 -23.5 -66t-64.5 -28t-65.5 28t-24.5 66q0 18 6.5 34.5t18.5 29.5t28.5 20.5t36.5 7.5q41 0 64.5 -28t23.5 -64zM268 -446q0 -38 -23.5 -66t-64.5 -28t-65.5 28t-24.5 66q0 18 6.5 34.5t18.5 29.5t28.5 20.5t36.5 7.5q41 0 64.5 -28t23.5 -64zM448 -626 q0 -38 -23.5 -66t-64.5 -28t-65.5 28t-24.5 66q0 18 6.5 34.5t18.5 29.5t28.5 20.5t36.5 7.5q41 0 64.5 -28t23.5 -64z" />
<glyph unicode="&#x5bc;" d="M89 599q0 -40 -24.5 -66.5t-64.5 -26.5t-64.5 26.5t-24.5 66.5t24.5 66.5t64.5 26.5t64.5 -26.5t24.5 -66.5z" />
<glyph unicode="&#x5bd;" d="M40 -568h-82v414h82v-414z" />
<glyph unicode="&#x5be;" horiz-adv-x="890" d="M100 486v186h690v-186h-690z" />
<glyph unicode="&#x5bf;" horiz-adv-x="672" d="M60 1004v184h512v-184h-512z" />
<glyph unicode="&#x5c0;" horiz-adv-x="504" d="M160 -134v1464h184v-1464h-184z" />
<glyph unicode="&#x5c1;" d="M89 1389q0 -40 -24.5 -66.5t-64.5 -26.5t-64.5 26.5t-24.5 66.5t24.5 66.5t64.5 26.5t64.5 -26.5t24.5 -66.5z" />
<glyph unicode="&#x5c2;" d="M89 1389q0 -40 -24.5 -66.5t-64.5 -26.5t-64.5 26.5t-24.5 66.5t24.5 66.5t64.5 26.5t64.5 -26.5t24.5 -66.5z" />
<glyph unicode="&#x5c3;" horiz-adv-x="402" d="M100 0v208h208v-208h-208zM100 730v208h208v-208h-208z" />
<glyph unicode="&#x5c4;" d="M89 1389q0 -40 -24.5 -66.5t-64.5 -26.5t-64.5 26.5t-24.5 66.5t24.5 66.5t64.5 26.5t64.5 -26.5t24.5 -66.5z" />
<glyph unicode="&#x5d0;" horiz-adv-x="1252" d="M1046 404h-114l226 -270l-146 -144l-628 752l-92 -742h-212l96 776l136 54l-222 258l152 138l616 -734l102 512h-198l48 184h252q53 0 86.5 -33.5t33.5 -82.5q0 -15 -4 -30z" />
<glyph unicode="&#x5d1;" horiz-adv-x="1114" d="M80 0v184h626v820h-616l48 184h682q42 0 72 -30t30 -72v-902h152v-184h-994z" />
<glyph unicode="&#x5d2;" horiz-adv-x="832" d="M586 0l-70 462l-344 -510l-172 106l376 564l128 -80l-70 462h-224l48 184h262q38 0 67 -22t35 -58l172 -1108h-208z" />
<glyph unicode="&#x5d3;" horiz-adv-x="1108" d="M864 1004v-1004h-218v1004h-586l48 184h940v-184h-184z" />
<glyph unicode="&#x5d4;" horiz-adv-x="1180" d="M1060 0h-216v1004h-724l48 184h790q42 0 72 -30t30 -72v-1086zM120 0v702h216v-702h-216z" />
<glyph unicode="&#x5d5;" horiz-adv-x="614" d="M260 0v1004h-160l48 184h228q42 0 72 -30t30 -72v-1086h-218z" />
<glyph unicode="&#x5d6;" horiz-adv-x="754" d="M472 1004l132 -1004h-214l-132 1004h-178l48 184h546v-184h-202z" />
<glyph unicode="&#x5d7;" horiz-adv-x="1276" d="M1156 0h-216v1004h-486v-1004h-216v1004h-158l48 184h926q42 0 72 -30t30 -72v-1086z" />
<glyph unicode="&#x5d8;" horiz-adv-x="1256" d="M1086 1188q52 0 86 -33.5t34 -82.5q0 -15 -4 -30l-156 -636q-38 -172 -105 -249t-237 -111l-352 -70l-180 1028h-126l48 184h172q44 0 71 -20.5t35 -61.5l160 -888l160 36q62 14 90.5 42.5t43.5 89.5l150 618h-342l48 184h404z" />
<glyph unicode="&#x5d9;" horiz-adv-x="596" d="M276 570v434h-210l48 184h286q42 0 69 -29t27 -71v-518h-220z" />
<glyph unicode="&#x5da;" horiz-adv-x="998" d="M662 -262v1266h-582l48 184h648q42 0 72 -30t30 -72v-1348h-216z" />
<glyph unicode="&#x5db;" horiz-adv-x="1072" d="M732 1004h-642l48 184h708q42 0 72 -30t30 -72v-984q0 -42 -30 -72t-72 -30h-766v184h652v820z" />
<glyph unicode="&#x5dc;" horiz-adv-x="1040" d="M882 1188q52 0 86 -35.5t34 -84.5q0 -16 -8 -44l-280 -1024h-230l276 1004h-690v498h218v-314h594z" />
<glyph unicode="&#x5dd;" horiz-adv-x="1262" d="M218 0v1004h-138l48 184h912q42 0 72 -30t30 -72v-1086h-924zM928 1004h-496v-820h496v820z" />
<glyph unicode="&#x5de;" horiz-adv-x="1230" d="M356 1064q142 146 330 146q192 0 324 -127.5t132 -322.5v-760h-570l36 184h330v580q0 104 -73.5 178t-178.5 74q-91 0 -159 -57t-87 -149l-142 -810h-220l160 886l-198 124l118 178z" />
<glyph unicode="&#x5df;" horiz-adv-x="582" d="M462 -262h-218v1266h-164l48 184h232q42 0 72 -30t30 -72v-1348z" />
<glyph unicode="&#x5e0;" horiz-adv-x="698" d="M60 0v184h302v820h-204l48 184h270q42 0 72 -30t30 -72v-1086h-518z" />
<glyph unicode="&#x5e1;" horiz-adv-x="1284" d="M1110 372q-29 -202 -136.5 -303t-285.5 -101t-283.5 105.5t-132.5 304.5l-78 626h-134l48 184h1116zM496 358q10 -87 57.5 -139.5t134.5 -52.5q91 0 136.5 50t57.5 142l94 646h-556z" />
<glyph unicode="&#x5e2;" horiz-adv-x="1214" d="M1036 1188q52 0 86 -32.5t34 -80.5q0 -17 -4 -33l-150 -594q-51 -199 -133 -271.5t-235 -110.5l-498 -130l-48 186l314 88l-208 794h-140l48 184h176q44 0 73.5 -20t40.5 -62l218 -840l50 14q46 13 68.5 40t41.5 106l148 578h-152l48 184h222z" />
<glyph unicode="&#x5e3;" horiz-adv-x="1208" d="M1088 -262h-216v1266h-452v-422h-216v422h-124l48 184h858q42 0 72 -30t30 -72v-1348z" />
<glyph unicode="&#x5e4;" horiz-adv-x="1222" d="M886 1004h-456v-434h-216v434h-128l48 184h866q42 0 72 -30t30 -72v-984q0 -42 -30 -72t-72 -30h-878v184h764v820z" />
<glyph unicode="&#x5e5;" horiz-adv-x="1116" d="M950 1188q51 0 83 -30.5t32 -71.5q0 -27 -9 -44l-332 -734h-146l140 -570h-226l-308 1266h-130l48 184h154q102 0 126 -98l164 -654l250 568h-174l48 184h280z" />
<glyph unicode="&#x5e6;" horiz-adv-x="1140" d="M968 1188q54 0 86 -33.5t32 -75.5q0 -20 -6 -37l-168 -502h-120l236 -312l-70 -228h-888v184h722l-618 820h-106l48 184h188l420 -558l124 374h-134l48 184h206z" />
<glyph unicode="&#x5e7;" horiz-adv-x="1300" d="M1086 1188q59 0 97.5 -37.5t38.5 -94.5q0 -26 -16 -74l-260 -880l-202 68l244 834h-542v-1266h-214v1266h-152l48 184h958z" />
<glyph unicode="&#x5e8;" horiz-adv-x="1046" d="M926 0h-218v1004h-652l48 184h720q42 0 72 -30t30 -72v-1086z" />
<glyph unicode="&#x5e9;" horiz-adv-x="1512" d="M850 1188q36 0 61 -23t25 -56q0 -15 -4 -27l-232 -704h-176l40 -194h204q95 0 154 41t92 137l210 642h-128l48 184h196q51 0 84.5 -32t33.5 -78q0 -18 -6 -36l-216 -674q-63 -202 -172 -285t-326 -83h-344l-214 1004h-120l48 184h148q48 0 74.5 -24.5t35.5 -69.5 l140 -644l180 554h-118l48 184h234z" />
<glyph unicode="&#x5ea;" horiz-adv-x="1366" d="M1030 0v1004h-512v-1004h-458v184h242v820h-172l48 184h966q42 0 72 -30t30 -72v-1086h-216z" />
<glyph unicode="&#x5f3;" horiz-adv-x="464" d="M198 788h-118l124 554h220z" />
<glyph unicode="&#x5f4;" horiz-adv-x="744" d="M488 790h-118l124 552h220zM188 790h-118l124 552h220z" />
<glyph unicode="&#x2000;" horiz-adv-x="767" />
<glyph unicode="&#x2001;" horiz-adv-x="1534" />
<glyph unicode="&#x2002;" horiz-adv-x="767" />
<glyph unicode="&#x2003;" horiz-adv-x="1534" />
<glyph unicode="&#x2004;" horiz-adv-x="511" />
<glyph unicode="&#x2005;" horiz-adv-x="383" />
<glyph unicode="&#x2006;" horiz-adv-x="255" />
<glyph unicode="&#x2007;" horiz-adv-x="255" />
<glyph unicode="&#x2008;" horiz-adv-x="191" />
<glyph unicode="&#x2009;" horiz-adv-x="306" />
<glyph unicode="&#x200a;" horiz-adv-x="85" />
<glyph unicode="&#x200c;" horiz-adv-x="384" d="M100 -134v1464h184v-1464h-184z" />
<glyph unicode="&#x2010;" horiz-adv-x="734" d="M100 486v186h534v-186h-534z" />
<glyph unicode="&#x2011;" horiz-adv-x="734" d="M100 486v186h534v-186h-534z" />
<glyph unicode="&#x2012;" horiz-adv-x="734" d="M100 486v186h534v-186h-534z" />
<glyph unicode="&#x2013;" horiz-adv-x="712" d="M100 1028v156h512v-156h-512z" />
<glyph unicode="&#x2014;" horiz-adv-x="952" d="M140 506v156h672v-156h-672z" />
<glyph unicode="&#x2018;" horiz-adv-x="464" d="M198 788h-118l124 554h220z" />
<glyph unicode="&#x2019;" horiz-adv-x="464" d="M198 788h-118l124 554h220z" />
<glyph unicode="&#x201c;" horiz-adv-x="744" d="M488 790h-118l124 552h220zM188 790h-118l124 552h220z" />
<glyph unicode="&#x201d;" horiz-adv-x="744" d="M488 790h-118l124 552h220zM188 790h-118l124 552h220z" />
<glyph unicode="&#x2022;" horiz-adv-x="700" d="M600 659q0 -104 -70.5 -174.5t-174.5 -70.5t-174.5 70.5t-70.5 174.5t70.5 174.5t174.5 70.5t174.5 -70.5t70.5 -174.5z" />
<glyph unicode="&#x202f;" horiz-adv-x="306" />
<glyph unicode="&#x205f;" horiz-adv-x="383" />
<glyph unicode="&#x20aa;" horiz-adv-x="2002" d="M1336 436h-216v568h-644v-1004h-220v1004h-156l48 184h1086q42 0 72 -30t30 -72v-650zM914 758v-574h338q93 0 155 44.5t91 133.5l210 642h-208l48 184h276q51 0 84.5 -32t33.5 -77q0 -18 -6 -37l-216 -674q-66 -208 -175.5 -288t-328.5 -80h-522v758h220z" />
<glyph unicode="&#xe000;" horiz-adv-x="500" d="M0 0v0v0v0v0z" />
<glyph unicode="&#xfb2a;" horiz-adv-x="1512" d="M850 1188q36 0 61 -23t25 -56q0 -15 -4 -27l-232 -704h-176l40 -194h204q95 0 154 41t92 137l210 642h-128l48 184h196q51 0 84.5 -32t33.5 -78q0 -18 -6 -36l-216 -674q-63 -202 -172 -285t-326 -83h-344l-214 1004h-120l48 184h148q48 0 74.5 -24.5t35.5 -69.5 l140 -644l180 554h-118l48 184h234zM1386 1389q0 -40 -24.5 -66.5t-64.5 -26.5t-64.5 26.5t-24.5 66.5t24.5 66.5t64.5 26.5t64.5 -26.5t24.5 -66.5z" />
<glyph unicode="&#xfb2b;" horiz-adv-x="1512" d="M312 1389q0 -40 -24.5 -66.5t-64.5 -26.5t-64.5 26.5t-24.5 66.5t24.5 66.5t64.5 26.5t64.5 -26.5t24.5 -66.5zM850 1188q36 0 61 -23t25 -56q0 -15 -4 -27l-232 -704h-176l40 -194h204q95 0 154 41t92 137l210 642h-128l48 184h196q51 0 84.5 -32t33.5 -78q0 -18 -6 -36 l-216 -674q-63 -202 -172 -285t-326 -83h-344l-214 1004h-120l48 184h148q48 0 74.5 -24.5t35.5 -69.5l140 -644l180 554h-118l48 184h234z" />
<glyph unicode="&#xfb35;" horiz-adv-x="602" d="M178 599q0 -40 -24.5 -66.5t-64.5 -26.5t-64.5 26.5t-24.5 66.5t24.5 66.5t64.5 26.5t64.5 -26.5t24.5 -66.5zM248 0v1004h-160l48 184h228q42 0 72 -30t30 -72v-1086h-218z" />
<glyph unicode="&#xfb4b;" horiz-adv-x="614" d="M434 1389q0 -40 -24.5 -66.5t-64.5 -26.5t-64.5 26.5t-24.5 66.5t24.5 66.5t64.5 26.5t64.5 -26.5t24.5 -66.5zM260 0v1004h-160l48 184h228q42 0 72 -30t30 -72v-1086h-218z" />
</font>
</defs>
</svg>
