<?xml version="1.0" standalone="no"?>
<!DOCTYPE svg PUBLIC "-//W3C//DTD SVG 1.1//EN" "http://www.w3.org/Graphics/SVG/1.1/DTD/svg11.dtd" >
<svg xmlns="http://www.w3.org/2000/svg">
<metadata></metadata>
<defs>
<font id="southextrabold" horiz-adv-x="0" >
<font-face units-per-em="2048" ascent="1638" descent="-410" />
<missing-glyph horiz-adv-x="500" />
<glyph unicode=" "  horiz-adv-x="500" />
<glyph unicode="&#x09;" horiz-adv-x="500" />
<glyph unicode="&#xa0;" horiz-adv-x="500" />
<glyph unicode="!" horiz-adv-x="604" d="M100 510v850l364 86v-936h-364zM100 0v354h364v-354h-364z" />
<glyph unicode="&#x22;" horiz-adv-x="972" d="M714 790h-234l118 624h368zM294 790h-234l118 624h368z" />
<glyph unicode="#" horiz-adv-x="1336" d="M998 676l-40 -156h148v-222h-206l-64 -252h-232l66 252h-158l-66 -252h-230l64 252h-180v222h238l40 156h-148v222h204l66 252h230l-64 -252h158l66 252h230l-64 -252h180v-222h-238zM608 676l-40 -156h158l42 156h-160z" />
<glyph unicode="$" horiz-adv-x="1194" d="M1094 362q0 -79 -32.5 -140.5t-85 -106.5t-119.5 -73.5t-137 -41.5v-98h-244v92q-63 4 -129.5 25.5t-121.5 59.5t-90 93.5t-35 129.5v82h286v-48q0 -32 18 -50t72 -26v272q-71 22 -139 52t-120.5 72.5t-84.5 100t-32 135.5q0 87 32.5 147t85.5 99t120.5 60.5t137.5 31.5 v94h244v-96q57 -12 117 -35.5t109 -61t80.5 -89.5t31.5 -120v-78h-264v50q0 34 -21 51t-53 23v-234q73 -25 140.5 -55.5t119.5 -74t83 -102.5t31 -140zM476 966q-20 -4 -36.5 -8.5t-28.5 -12t-18.5 -20t-6.5 -31.5q0 -20 6 -34t18 -24t28.5 -17.5t37.5 -14.5v162zM808 354 q0 24 -11 41.5t-32 30t-45 22.5v-182q48 17 68 37.5t20 50.5z" />
<glyph unicode="%" horiz-adv-x="1692" d="M684 4h-230l552 1202h232zM160 892q0 68 8.5 126t33 107.5t77.5 73t153 23.5t153 -23.5t77.5 -73t33 -107.5t8.5 -126t-7 -129.5t-32.5 -115.5t-79 -77.5t-153.5 -23.5t-153.5 23.5t-79 77.5t-32.5 115.5t-7 129.5zM502 882q0 72 -6 108.5t-10.5 44t-18.5 11.5t-35 4 t-35 -4t-18.5 -11.5t-10.5 -44t-6 -108.5t6 -108t10.5 -43.5t18.5 -11.5t35 -4t35 4t18.5 11.5t10.5 43.5t6 108zM988 326q0 68 8.5 126t33 107.5t77.5 73t153 23.5t153 -23.5t77.5 -73t33 -107.5t8.5 -126t-7 -129.5t-32.5 -115.5t-79 -77.5t-153.5 -23.5t-153.5 23.5 t-79 77.5t-32.5 115.5t-7 129.5zM1330 316q0 72 -6 108.5t-10.5 44t-18.5 11.5t-35 4t-35 -4t-18.5 -11.5t-10.5 -44t-6 -108.5t6 -108t10.5 -43.5t18.5 -11.5t35 -4t35 4t18.5 11.5t10.5 43.5t6 108z" />
<glyph unicode="'" horiz-adv-x="546" d="M294 790h-234l118 624h368z" />
<glyph unicode="(" horiz-adv-x="704" d="M102 1132q0 75 19 132.5t55.5 101.5t90 76.5t121.5 57.5l176 -248q-21 -11 -41 -22t-35 -24.5t-24.5 -32.5t-9.5 -47v-1066q0 -25 10 -43.5t26 -33t35 -26.5t37 -23l-174 -242q-156 58 -221 149.5t-65 208.5v1082z" />
<glyph unicode=")" horiz-adv-x="702" d="M602 50q0 -116 -65 -208t-221 -150l-174 242q18 11 37 23t35 26.5t26 33t10 43.5v1066q0 28 -9.5 47t-24.5 32.5t-35 24.5t-41 22l176 248q68 -25 121.5 -57.5t90 -76.5t55.5 -101.5t19 -132.5v-1082z" />
<glyph unicode="*" horiz-adv-x="916" d="M614 1182l138 -190l-156 -114l-140 190l-136 -190l-154 114l136 188l-222 72l60 182l224 -70v234h192v-234l220 72l60 -184z" />
<glyph unicode="+" horiz-adv-x="914" d="M588 558v-226h-262v226h-226v240h226v226h262v-226h226v-240h-226z" />
<glyph unicode="," horiz-adv-x="626" d="M274 -298h-234l118 622h368z" />
<glyph unicode="-" horiz-adv-x="1014" d="M140 446v326h734v-326h-734z" />
<glyph unicode="." horiz-adv-x="464" d="M40 0v336h324v-336h-324z" />
<glyph unicode="/" horiz-adv-x="946" d="M352 -138h-312l552 1580h314z" />
<glyph unicode="0" horiz-adv-x="1192" d="M722 598q0 113 -9.5 183.5t-17 87t-30 24t-69.5 7.5t-69.5 -7.5t-30 -24t-17 -87t-9.5 -183.5t9.5 -183.5t17 -87t30 -24t69.5 -7.5t69.5 7.5t30 24t17 87t9.5 183.5zM596 -16q-90 0 -159.5 11t-139 43t-111.5 103t-64 186.5t-22 286.5q0 161 22 267.5t63.5 175.5 t106.5 103t134.5 45t169.5 11t169.5 -11t134.5 -45t106.5 -103t63.5 -175.5t22 -267.5q0 -171 -22 -286.5t-64 -186.5t-111.5 -103t-139 -43t-159.5 -11z" />
<glyph unicode="1" horiz-adv-x="864" d="M356 0v770l-164 -102l-152 260l394 260h270v-1188h-348z" />
<glyph unicode="2" horiz-adv-x="1150" d="M1060 844q0 -101 -53.5 -176.5t-194 -151t-190.5 -116t-80 -92.5h504v-308h-904v164q0 106 24.5 184.5t72 140t132 122t168.5 102.5t117.5 70.5t33.5 56.5q0 30 -20.5 47t-59.5 17q-33 0 -71 -7t-76 -19.5t-84 -34.5t-149 -95l-140 286q113 84 235 133t259 49 q200 0 338 -98.5t138 -273.5z" />
<glyph unicode="3" horiz-adv-x="1162" d="M1072 386q0 -114 -51 -194.5t-132 -131.5t-181.5 -74.5t-199.5 -23.5q-59 0 -111 7t-102.5 19.5t-100.5 30t-104 37.5l146 288q66 -25 107 -37t84.5 -21.5t78.5 -9.5q100 0 146 31.5t46 84.5q0 45 -37.5 71.5t-128.5 26.5h-214v196l229 190h-455l92 312h840v-274 l-238 -188q139 -45 212.5 -128.5t73.5 -211.5z" />
<glyph unicode="4" horiz-adv-x="1152" d="M958 226v-226h-302v226h-596v262l376 700h386l-350 -650h184v210h302v-210h144v-312h-144z" />
<glyph unicode="5" horiz-adv-x="1042" d="M920 1188v-312h-454l-9 -68q222 0 358.5 -98t136.5 -276q0 -149 -88.5 -252.5t-223.5 -141.5q-182 -52 -492 -130l-78 304q127 36 221.5 58t162.5 46q66 24 97 53t31 71q0 56 -46.5 80t-141.5 24h-318l92 642h752z" />
<glyph unicode="6" horiz-adv-x="1166" d="M1076 384q0 -184 -138.5 -303t-357.5 -119q-238 0 -369 119t-131 317q0 126 46 239.5t144 210.5l374 382l346 -140q-137 -112 -300 -286q161 -21 273.5 -141t112.5 -279zM716 386q0 56 -37 90t-105 34q-62 0 -99 -34.5t-37 -87.5q0 -62 37 -95t103 -33t102 32t36 94z" />
<glyph unicode="7" horiz-adv-x="1038" d="M988 878q-183 -173 -257.5 -259.5t-109.5 -175t-35 -187.5v-256h-370v256q0 97 26 181.5t71 159.5t104 143.5t125 135.5h-502l92 312h856v-310z" />
<glyph unicode="8" horiz-adv-x="1152" d="M1072 358q0 -175 -133 -274.5t-363 -99.5q-232 0 -364 99.5t-132 274.5q0 105 46.5 180t121.5 126q-49 40 -85.5 99.5t-36.5 136.5q0 153 133 234.5t317 81.5q182 0 316 -81.5t134 -234.5q0 -77 -35 -135.5t-87 -100.5q74 -51 121 -126t47 -180zM686 890q0 23 -31 36.5 t-79 13.5q-47 0 -78.5 -13.5t-31.5 -36.5q0 -20 29.5 -43.5t80.5 -40.5q52 18 81 42t29 42zM712 360q0 45 -38 80.5t-98 61.5q-55 -23 -95.5 -56.5t-40.5 -85.5q0 -42 33.5 -68t102.5 -26t102.5 26t33.5 68z" />
<glyph unicode="9" horiz-adv-x="1160" d="M1090 780q0 -114 -54 -227t-130.5 -212.5t-170.5 -208t-203 -206.5l-400 94q150 120 348 366q-86 13 -158 49.5t-123.5 91.5t-80 124.5t-28.5 148.5q0 97 37.5 177t105 136.5t159.5 87.5t202 31q117 0 209 -34t156 -94.5t97.5 -143.5t33.5 -180zM734 806q0 60 -37 93 t-103 33q-69 0 -108.5 -32.5t-39.5 -95.5q0 -54 38.5 -89t109.5 -35q63 0 101.5 33.5t38.5 92.5z" />
<glyph unicode=":" horiz-adv-x="582" d="M140 740v320h302v-320h-302zM140 -2v320h302v-320h-302z" />
<glyph unicode=";" horiz-adv-x="686" d="M194 852v336h344v-336h-344zM294 0h-234l138 642h348z" />
<glyph unicode="&#x3c;" horiz-adv-x="1230" d="M532 598l598 -466h-432l-598 466l598 466h432z" />
<glyph unicode="=" horiz-adv-x="986" d="M100 666v248h786v-248h-786zM100 284v246h786v-246h-786z" />
<glyph unicode="&#x3e;" horiz-adv-x="1230" d="M532 132h-432l598 466l-598 466h432l598 -466z" />
<glyph unicode="?" horiz-adv-x="1070" d="M930 1090q0 -56 -26 -95t-70 -71l-344 -248q-10 -7 -4 -16l72 -102l-350 -100l-102 166q-25 44 -25 87q0 45 22 82t55 59l304 212q12 8 12 17q0 6 -8.5 13.5t-29.5 17.5q-27 12 -71.5 26t-256.5 76l164 270q187 -49 282.5 -81.5t182 -77t140 -105t53.5 -130.5zM166 0v354 h366v-354h-366z" />
<glyph unicode="[" horiz-adv-x="704" d="M102 1132q0 75 19 132.5t55.5 101.5t90 76.5t121.5 57.5l176 -248q-21 -11 -41 -22t-35 -24.5t-24.5 -32.5t-9.5 -47v-1066q0 -25 10 -43.5t26 -33t35 -26.5t37 -23l-174 -242q-156 58 -221 149.5t-65 208.5v1082z" />
<glyph unicode="\" horiz-adv-x="946" d="M40 1442h314l552 -1580h-312z" />
<glyph unicode="]" horiz-adv-x="702" d="M602 50q0 -116 -65 -208t-221 -150l-174 242q18 11 37 23t35 26.5t26 33t10 43.5v1066q0 28 -9.5 47t-24.5 32.5t-35 24.5t-41 22l176 248q68 -25 121.5 -57.5t90 -76.5t55.5 -101.5t19 -132.5v-1082z" />
<glyph unicode="{" horiz-adv-x="854" d="M252 426h-192v350h192v356q0 75 19 132.5t55.5 101.5t90 76.5t121.5 57.5l176 -248q-21 -11 -41 -22t-35 -24.5t-24.5 -32.5t-9.5 -47v-1066q0 -25 10 -43.5t26 -33t35 -26.5t37 -23l-174 -242q-147 53 -216.5 144.5t-69.5 213.5v376z" />
<glyph unicode="|" horiz-adv-x="604" d="M140 -134v1464h324v-1464h-324z" />
<glyph unicode="}" horiz-adv-x="854" d="M602 50q0 -122 -69.5 -213.5t-216.5 -144.5l-174 242q18 11 37 23t35 26.5t26 33t10 43.5v1066q0 28 -9.5 47t-24.5 32.5t-35 24.5t-41 22l176 248q68 -25 121.5 -57.5t90 -76.5t55.5 -101.5t19 -132.5v-356h192v-350h-192v-376z" />
<glyph unicode="&#xa6;" horiz-adv-x="576" d="M396 1352v-742h-216v742h216zM396 372v-742h-216v742h216z" />
<glyph unicode="&#xad;" horiz-adv-x="1014" d="M140 446v326h734v-326h-734z" />
<glyph unicode="&#xd7;" horiz-adv-x="1160" d="M812 132l-250 250l-240 -242l-154 154l242 240l-242 242l154 154l242 -240l246 246l154 -154l-246 -246l246 -248z" />
<glyph unicode="&#x5b0;" d="M110 -210q0 -24 -8 -45t-22.5 -37t-34.5 -25t-45 -9t-45 9t-34.5 25t-22.5 37t-8 45q0 22 8 42t22.5 35.5t34.5 25t45 9.5t45 -9.5t34.5 -25t22.5 -35.5t8 -42zM110 -508q0 -23 -8 -44t-22.5 -36.5t-34.5 -24.5t-45 -9t-45 9t-34.5 24.5t-22.5 36.5t-8 44q0 22 8 42.5 t22.5 36.5t34.5 25.5t45 9.5t45 -9.5t34.5 -25.5t22.5 -36.5t8 -42.5z" />
<glyph unicode="&#x5b1;" d="M-30 -490q0 -23 -8 -44t-22.5 -36.5t-34.5 -24.5t-45 -9t-45 9t-34.5 24.5t-22.5 36.5t-8 44q0 22 8 42.5t22.5 36.5t34.5 25.5t45 9.5t45 -9.5t34.5 -25.5t22.5 -36.5t8 -42.5zM-166 -210q0 -24 -8 -45t-22.5 -37t-34.5 -25t-45 -9t-45 9t-34.5 25t-22.5 37t-8 45 q0 22 8 42t22.5 35.5t34.5 25t45 9.5t45 -9.5t34.5 -25t22.5 -35.5t8 -42zM386 -210q0 -24 -8 -45t-22.5 -37t-34.5 -25t-45 -9t-45 9t-34.5 25t-22.5 37t-8 45q0 22 8 42t22.5 35.5t34.5 25t45 9.5t45 -9.5t34.5 -25t22.5 -35.5t8 -42zM384 -490q0 -23 -8 -44t-22.5 -36.5 t-34.5 -24.5t-45 -9t-45 9t-34.5 24.5t-22.5 36.5t-8 44q0 22 8 42.5t22.5 36.5t34.5 25.5t45 9.5t45 -9.5t34.5 -25.5t22.5 -36.5t8 -42.5zM110 -210q0 -24 -8 -45t-22.5 -37t-34.5 -25t-45 -9t-45 9t-34.5 25t-22.5 37t-8 45q0 22 8 42t22.5 35.5t34.5 25t45 9.5t45 -9.5 t34.5 -25t22.5 -35.5t8 -42z" />
<glyph unicode="&#x5b2;" d="M386 -210q0 -24 -8 -45t-22.5 -37t-34.5 -25t-45 -9t-45 9t-34.5 25t-22.5 37t-8 45q0 22 8 42t22.5 35.5t34.5 25t45 9.5t45 -9.5t34.5 -25t22.5 -35.5t8 -42zM384 -490q0 -23 -8 -44t-22.5 -36.5t-34.5 -24.5t-45 -9t-45 9t-34.5 24.5t-22.5 36.5t-8 44q0 22 8 42.5 t22.5 36.5t34.5 25.5t45 9.5t45 -9.5t34.5 -25.5t22.5 -36.5t8 -42.5zM-384 -278v126h476v-126h-476z" />
<glyph unicode="&#x5b3;" d="M386 -210q0 -24 -8 -45t-22.5 -37t-34.5 -25t-45 -9t-45 9t-34.5 25t-22.5 37t-8 45q0 22 8 42t22.5 35.5t34.5 25t45 9.5t45 -9.5t34.5 -25t22.5 -35.5t8 -42zM384 -490q0 -23 -8 -44t-22.5 -36.5t-34.5 -24.5t-45 -9t-45 9t-34.5 24.5t-22.5 36.5t-8 44q0 22 8 42.5 t22.5 36.5t34.5 25.5t45 9.5t45 -9.5t34.5 -25.5t22.5 -36.5t8 -42.5zM-204 -278h-180v126h476v-126h-180l20 -260h-156z" />
<glyph unicode="&#x5b4;" d="M110 -210q0 -24 -8 -45t-22.5 -37t-34.5 -25t-45 -9t-45 9t-34.5 25t-22.5 37t-8 45q0 22 8 42t22.5 35.5t34.5 25t45 9.5t45 -9.5t34.5 -25t22.5 -35.5t8 -42z" />
<glyph unicode="&#x5b5;" d="M266 -210q0 -24 -8 -45t-22.5 -37t-34.5 -25t-45 -9t-45 9t-34.5 25t-22.5 37t-8 45q0 22 8 42t22.5 35.5t34.5 25t45 9.5t45 -9.5t34.5 -25t22.5 -35.5t8 -42zM-46 -210q0 -24 -8 -45t-22.5 -37t-34.5 -25t-45 -9t-45 9t-34.5 25t-22.5 37t-8 45q0 22 8 42t22.5 35.5 t34.5 25t45 9.5t45 -9.5t34.5 -25t22.5 -35.5t8 -42z" />
<glyph unicode="&#x5b6;" d="M266 -210q0 -24 -8 -45t-22.5 -37t-34.5 -25t-45 -9t-45 9t-34.5 25t-22.5 37t-8 45q0 22 8 42t22.5 35.5t34.5 25t45 9.5t45 -9.5t34.5 -25t22.5 -35.5t8 -42zM-46 -210q0 -24 -8 -45t-22.5 -37t-34.5 -25t-45 -9t-45 9t-34.5 25t-22.5 37t-8 45q0 22 8 42t22.5 35.5 t34.5 25t45 9.5t45 -9.5t34.5 -25t22.5 -35.5t8 -42zM110 -488q0 -24 -8 -45t-22.5 -37t-34.5 -25t-45 -9t-45 9t-34.5 25t-22.5 37t-8 45q0 22 8 42t22.5 35.5t34.5 25t45 9.5t45 -9.5t34.5 -25t22.5 -35.5t8 -42z" />
<glyph unicode="&#x5b7;" d="M-238 -278v126h476v-126h-476z" />
<glyph unicode="&#x5b8;" d="M-58 -278h-180v126h476v-126h-180l20 -260h-156z" />
<glyph unicode="&#x5b9;" d="M128 1440q0 -27 -9.5 -50.5t-26.5 -40.5t-40.5 -27t-51.5 -10q-27 0 -50.5 10t-41.5 27t-28 40.5t-10 50.5t10 50.5t28 40.5t41.5 27t50.5 10q28 0 51.5 -10t40.5 -27t26.5 -40.5t9.5 -50.5z" />
<glyph unicode="&#x5bb;" d="M110 -210q0 -24 -8 -45t-22.5 -37t-34.5 -25t-45 -9t-45 9t-34.5 25t-22.5 37t-8 45q0 22 8 42t22.5 35.5t34.5 25t45 9.5t45 -9.5t34.5 -25t22.5 -35.5t8 -42zM494 -668q0 -23 -8 -44t-22.5 -36.5t-34.5 -24.5t-45 -9t-45 9t-34.5 24.5t-22.5 36.5t-8 44q0 22 8 42.5 t22.5 36.5t34.5 25.5t45 9.5t45 -9.5t34.5 -25.5t22.5 -36.5t8 -42.5zM302 -438q0 -24 -8 -45t-22.5 -37t-34.5 -25t-45 -9t-45 9t-34.5 25t-22.5 37t-8 45q0 22 8 42t22.5 35.5t34.5 25t45 9.5t45 -9.5t34.5 -25t22.5 -35.5t8 -42z" />
<glyph unicode="&#x5bc;" d="M128 544q0 -27 -9.5 -50.5t-26.5 -40.5t-40.5 -27t-51.5 -10q-27 0 -50.5 10t-41.5 27t-28 40.5t-10 50.5t10 50.5t28 40.5t41.5 27t50.5 10q28 0 51.5 -10t40.5 -27t26.5 -40.5t9.5 -50.5z" />
<glyph unicode="&#x5bd;" d="M40 -568h-82v414h82v-414z" />
<glyph unicode="&#x5be;" horiz-adv-x="1154" d="M140 446v326h874v-326h-874z" />
<glyph unicode="&#x5bf;" horiz-adv-x="772" d="M60 850v338h612v-338h-612z" />
<glyph unicode="&#x5c0;" horiz-adv-x="604" d="M140 -134v1464h324v-1464h-324z" />
<glyph unicode="&#x5c1;" d="M128 1440q0 -27 -9.5 -50.5t-26.5 -40.5t-40.5 -27t-51.5 -10q-27 0 -50.5 10t-41.5 27t-28 40.5t-10 50.5t10 50.5t28 40.5t41.5 27t50.5 10q28 0 51.5 -10t40.5 -27t26.5 -40.5t9.5 -50.5z" />
<glyph unicode="&#x5c2;" d="M128 1440q0 -27 -9.5 -50.5t-26.5 -40.5t-40.5 -27t-51.5 -10q-27 0 -50.5 10t-41.5 27t-28 40.5t-10 50.5t10 50.5t28 40.5t41.5 27t50.5 10q28 0 51.5 -10t40.5 -27t26.5 -40.5t9.5 -50.5z" />
<glyph unicode="&#x5c3;" horiz-adv-x="582" d="M140 742v320h302v-320h-302zM140 0v320h302v-320h-302z" />
<glyph unicode="&#x5c4;" d="M128 1440q0 -27 -9.5 -50.5t-26.5 -40.5t-40.5 -27t-51.5 -10q-27 0 -50.5 10t-41.5 27t-28 40.5t-10 50.5t10 50.5t28 40.5t41.5 27t50.5 10q28 0 51.5 -10t40.5 -27t26.5 -40.5t9.5 -50.5z" />
<glyph unicode="&#x5d0;" horiz-adv-x="1366" d="M1040 -46l-544 592l-34 -546h-382l36 670l190 84l-236 260l282 242l550 -608l34 202h-120l90 338h206q91 0 149 -55.5t58 -133.5q0 -17 -3 -35l-80 -472h-184l270 -296z" />
<glyph unicode="&#x5d1;" horiz-adv-x="1220" d="M76 0v336h566v514h-572l90 338h700q71 0 119.5 -48.5t48.5 -119.5v-684h142v-336h-1094z" />
<glyph unicode="&#x5d2;" horiz-adv-x="1018" d="M612 0l-52 268l-330 -354l-264 230l402 432l144 -52l-44 326h-270l88 338h364q57 0 101.5 -29t56.5 -85q1 -5 5 -29t11 -63.5t15.5 -91t18.5 -111.5t21 -125t22 -131q39 -232 87 -523h-376z" />
<glyph unicode="&#x5d3;" horiz-adv-x="1218" d="M986 850v-850h-386v850h-546l90 338h1014v-338h-172z" />
<glyph unicode="&#x5d4;" horiz-adv-x="1276" d="M788 0v850h-698l90 338h828q71 0 119.5 -48.5t48.5 -119.5v-1020h-388zM96 0v650h382v-650h-382z" />
<glyph unicode="&#x5d5;" horiz-adv-x="708" d="M620 0h-386v850h-174l90 338h302q71 0 119.5 -48.5t48.5 -119.5v-1020z" />
<glyph unicode="&#x5d6;" horiz-adv-x="934" d="M672 850l120 -850h-388l-118 850h-226l90 338h704v-338h-182z" />
<glyph unicode="&#x5d7;" horiz-adv-x="1392" d="M910 0v850h-286v-850h-382v850h-182l90 338h974q71 0 119.5 -48.5t48.5 -119.5v-1020h-382z" />
<glyph unicode="&#x5d8;" horiz-adv-x="1370" d="M1184 430q-44 -182 -135 -261t-284.5 -115.5t-408.5 -67.5l-146 864h-174l90 338h240q67 0 116 -37.5t60 -102.5l110 -660q33 5 65.5 10t56.5 23t40 71l100 358h-280l90 338h426q75 0 125.5 -48.5t50.5 -120.5q0 -21 -6 -43z" />
<glyph unicode="&#x5d9;" horiz-adv-x="726" d="M258 482v368h-218l90 338h348q71 0 119.5 -48.5t48.5 -119.5v-538h-388z" />
<glyph unicode="&#x5da;" horiz-adv-x="1138" d="M652 -262v1112h-572l90 338h700q71 0 119.5 -48.5t48.5 -119.5v-1282h-386z" />
<glyph unicode="&#x5db;" horiz-adv-x="1178" d="M690 850h-610l90 338h740q71 0 119.5 -48.5t48.5 -119.5v-852q0 -71 -48.5 -119.5t-119.5 -48.5h-824v336h604v514z" />
<glyph unicode="&#x5dc;" horiz-adv-x="1136" d="M820 0h-376l246 850h-630v682h382v-344h440q91 0 151.5 -62t60.5 -148q0 -32 -10 -64z" />
<glyph unicode="&#x5dd;" horiz-adv-x="1384" d="M1284 0h-1060v850h-164l90 338h968q71 0 119.5 -48.5t48.5 -119.5zM900 850h-292v-514h292v514z" />
<glyph unicode="&#x5de;" horiz-adv-x="1336" d="M652 0l64 336h162v424q0 43 -38 76.5t-90 33.5q-47 0 -86.5 -29.5t-47.5 -74.5l-138 -766h-402l158 812l-200 136l202 300l206 -140q144 104 300 104q240 0 380 -134t140 -338v-740h-610z" />
<glyph unicode="&#x5df;" horiz-adv-x="738" d="M252 -262v1112h-172l90 338h300q71 0 119.5 -48.5t48.5 -119.5v-1282h-386z" />
<glyph unicode="&#x5e0;" horiz-adv-x="816" d="M40 0v336h288v514h-218l90 338h348q71 0 119.5 -48.5t48.5 -119.5v-1020h-676z" />
<glyph unicode="&#x5e1;" horiz-adv-x="1386" d="M1292 852l-90 -516q-32 -177 -154.5 -275.5t-311.5 -98.5q-185 0 -312 103t-152 271l-66 514h-160l90 338h1190zM650 388q13 -90 90 -90q78 0 92 90l74 462h-312z" />
<glyph unicode="&#x5e2;" horiz-adv-x="1394" d="M1354 1022q0 -11 -5.5 -39t-11.5 -54q-44 -191 -127 -489q-49 -180 -166 -266.5t-300 -133.5q-162 -41 -534 -138l-92 330l276 72l-142 546h-212l90 338h276q68 0 115.5 -33t62.5 -93l166 -664l16 6q32 14 50.5 38.5t27.5 57.5l100 350h-194l90 338h346q68 0 118 -48.5 t50 -117.5z" />
<glyph unicode="&#x5e3;" horiz-adv-x="1314" d="M826 -262v1112h-266v-332h-368v332h-132l90 338h896q71 0 119.5 -48.5t48.5 -119.5v-1282h-388z" />
<glyph unicode="&#x5e4;" horiz-adv-x="1314" d="M826 850h-266v-330h-368v330h-132l90 338h896q71 0 119.5 -48.5t48.5 -119.5v-852q0 -71 -48.5 -119.5t-119.5 -48.5h-940v336h720v514z" />
<glyph unicode="&#x5e5;" horiz-adv-x="1274" d="M1002 354h-252l138 -616h-390l-270 1112h-168l90 338h238q65 0 113 -31.5t63 -90.5l126 -514l98 298h-92l88 338h290q62 0 107 -38.5t45 -96.5q0 -22 -8 -45z" />
<glyph unicode="&#x5e6;" horiz-adv-x="1284" d="M1034 1188q90 0 149 -54.5t59 -129.5q0 -19 -4 -40l-88 -432h-166l204 -234l-108 -298h-1008v336l636 1l-142 139l-324 374h-182l90 338h270l418 -490l32 152h-110l90 338h184z" />
<glyph unicode="&#x5e7;" horiz-adv-x="1376" d="M1122 1188q91 0 151.5 -62t60.5 -150q0 -28 -10 -62l-272 -880l-336 124l214 692h-344v-1112h-368v1112h-178l90 338h992z" />
<glyph unicode="&#x5e8;" horiz-adv-x="1186" d="M698 0v850h-658l90 338h788q71 0 119.5 -48.5t48.5 -119.5v-1020h-388z" />
<glyph unicode="&#x5e9;" horiz-adv-x="1692" d="M968 1188q53 0 93.5 -38.5t40.5 -93.5q0 -15 -4 -30l-164 -576h-260l28 -114h270q48 0 86 29.5t52 74.5l122 410h-94l90 338h266q63 0 110 -47t47 -109q0 -19 -5 -38l-166 -600q-25 -89 -66.5 -162t-101 -124.5t-137 -79.5t-173.5 -28h-598l-208 850h-166l90 338h236 q65 0 110 -30t60 -92l112 -474l74 258h-104l90 338h270z" />
<glyph unicode="&#x5ea;" horiz-adv-x="1454" d="M970 0v850h-308v-850h-632v336h248v514h-216l88 338h1036q71 0 119.5 -48.5t48.5 -119.5v-1020h-384z" />
<glyph unicode="&#x5f3;" horiz-adv-x="546" d="M294 790h-234l118 624h368z" />
<glyph unicode="&#x5f4;" horiz-adv-x="972" d="M714 790h-234l118 624h368zM294 790h-234l118 624h368z" />
<glyph unicode="&#x2000;" horiz-adv-x="799" />
<glyph unicode="&#x2001;" horiz-adv-x="1598" />
<glyph unicode="&#x2002;" horiz-adv-x="799" />
<glyph unicode="&#x2003;" horiz-adv-x="1598" />
<glyph unicode="&#x2004;" horiz-adv-x="532" />
<glyph unicode="&#x2005;" horiz-adv-x="399" />
<glyph unicode="&#x2006;" horiz-adv-x="266" />
<glyph unicode="&#x2007;" horiz-adv-x="266" />
<glyph unicode="&#x2008;" horiz-adv-x="199" />
<glyph unicode="&#x2009;" horiz-adv-x="319" />
<glyph unicode="&#x200a;" horiz-adv-x="88" />
<glyph unicode="&#x200c;" horiz-adv-x="604" d="M140 -134v1464h324v-1464h-324z" />
<glyph unicode="&#x2010;" horiz-adv-x="1014" d="M140 446v326h734v-326h-734z" />
<glyph unicode="&#x2011;" horiz-adv-x="1014" d="M140 446v326h734v-326h-734z" />
<glyph unicode="&#x2012;" horiz-adv-x="1014" d="M140 446v326h734v-326h-734z" />
<glyph unicode="&#x2013;" horiz-adv-x="772" d="M60 850v338h612v-338h-612z" />
<glyph unicode="&#x2014;" horiz-adv-x="1154" d="M140 446v326h874v-326h-874z" />
<glyph unicode="&#x2018;" horiz-adv-x="546" d="M294 790h-234l118 624h368z" />
<glyph unicode="&#x2019;" horiz-adv-x="546" d="M294 790h-234l118 624h368z" />
<glyph unicode="&#x201c;" horiz-adv-x="972" d="M714 790h-234l118 624h368zM294 790h-234l118 624h368z" />
<glyph unicode="&#x201d;" horiz-adv-x="972" d="M714 790h-234l118 624h368zM294 790h-234l118 624h368z" />
<glyph unicode="&#x2022;" horiz-adv-x="700" d="M600 660q0 -101 -71 -172.5t-175 -71.5t-174 71.5t-70 172.5t70 172.5t174 71.5t175 -71.5t71 -172.5z" />
<glyph unicode="&#x202f;" horiz-adv-x="319" />
<glyph unicode="&#x205f;" horiz-adv-x="399" />
<glyph unicode="&#x20aa;" horiz-adv-x="2428" d="M1640 336q48 0 86 29.5t52 74.5l122 410h-126l90 338h298q63 0 110 -47t47 -109q0 -19 -5 -38l-166 -600q-58 -199 -178.5 -296.5t-299.5 -97.5h-856v684h326v-348h500zM1300 482v368h-666v-850h-382v850h-182l90 338h1344q67 0 117.5 -48.5t50.5 -119.5v-538h-372z" />
<glyph unicode="&#xe000;" horiz-adv-x="500" d="M0 0v0v0v0v0z" />
<glyph unicode="&#xfb2a;" horiz-adv-x="1692" d="M1582 1440q0 -27 -9.5 -50.5t-26.5 -40.5t-40.5 -27t-51.5 -10q-27 0 -50.5 10t-41.5 27t-28 40.5t-10 50.5t10 50.5t28 40.5t41.5 27t50.5 10q28 0 51.5 -10t40.5 -27t26.5 -40.5t9.5 -50.5zM968 1188q53 0 93.5 -38.5t40.5 -93.5q0 -15 -4 -30l-164 -576h-260l28 -114 h270q48 0 86 29.5t52 74.5l122 410h-94l90 338h266q63 0 110 -47t47 -109q0 -19 -5 -38l-166 -600q-25 -89 -66.5 -162t-101 -124.5t-137 -79.5t-173.5 -28h-598l-208 850h-166l90 338h236q65 0 110 -30t60 -92l112 -474l74 258h-104l90 338h270z" />
<glyph unicode="&#xfb2b;" horiz-adv-x="1692" d="M426 1440q0 -27 -9.5 -50.5t-26.5 -40.5t-40.5 -27t-51.5 -10q-27 0 -50.5 10t-41.5 27t-28 40.5t-10 50.5t10 50.5t28 40.5t41.5 27t50.5 10q28 0 51.5 -10t40.5 -27t26.5 -40.5t9.5 -50.5zM968 1188q53 0 93.5 -38.5t40.5 -93.5q0 -15 -4 -30l-164 -576h-260l28 -114 h270q48 0 86 29.5t52 74.5l122 410h-94l90 338h266q63 0 110 -47t47 -109q0 -19 -5 -38l-166 -600q-25 -89 -66.5 -162t-101 -124.5t-137 -79.5t-173.5 -28h-598l-208 850h-166l90 338h236q65 0 110 -30t60 -92l112 -474l74 258h-104l90 338h270z" />
<glyph unicode="&#xfb35;" horiz-adv-x="786" d="M240 544q0 -27 -9.5 -50.5t-26.5 -40.5t-40.5 -27t-51.5 -10q-27 0 -50.5 10t-41.5 27t-28 40.5t-10 50.5t10 50.5t28 40.5t41.5 27t50.5 10q28 0 51.5 -10t40.5 -27t26.5 -40.5t9.5 -50.5zM698 0h-386v850h-174l90 338h302q71 0 119.5 -48.5t48.5 -119.5v-1020z" />
<glyph unicode="&#xfb4b;" horiz-adv-x="708" d="M514 1440q0 -27 -9.5 -50.5t-26.5 -40.5t-40.5 -27t-51.5 -10q-27 0 -50.5 10t-41.5 27t-28 40.5t-10 50.5t10 50.5t28 40.5t41.5 27t50.5 10q28 0 51.5 -10t40.5 -27t26.5 -40.5t9.5 -50.5zM620 0h-386v850h-174l90 338h302q71 0 119.5 -48.5t48.5 -119.5v-1020z" />
</font>
</defs>
</svg>
